<svg width="1928" height="1088" viewBox="0 0 1928 1088" fill="none" xmlns="http://www.w3.org/2000/svg">
<g filter="url(#filter0_d_24_420)">
<rect width="1920" height="1080" transform="translate(4)" fill="#1470EB"/>
<path d="M1156.5 313L1137.5 312L1136 293L1136.5 286L1137.5 284.5L1203.5 283.5L1205 301V311L1156.5 313Z" fill="#F5BD01"/>
<path d="M680 244.5L674 243.5L673.5 233L672.5 221.5L673.5 216.5L740.5 215.5L743 233.5L742 242.5L736 244.5H680Z" fill="#F5BD01"/>
<path d="M1081.5 240L1059.5 239L1057.5 224.5L1058.5 212L1125 211L1127.5 227.5L1126.5 239L1081.5 240Z" fill="#FF4D4D"/>
<path d="M787 291L723.5 293L722 308.5L723.5 320L751.5 321.5L791 320V294.5L787 291Z" fill="#FF4D4D"/>
<path d="M1264.5 229L1242.5 227.5L1240.5 207.5L1241 200.5L1258 199.5L1307.5 198.5L1310 207V226L1298 228L1264.5 229Z" fill="#C780FF"/>
<path d="M850 336.5V320L912 318.5L917 320L919 337V346.5L902 348.5L851 347.5L850 336.5Z" fill="#C780FF"/>
<path d="M821 257L823 265L863.5 265.5L865 256L863 231L879 230.5L881 228.5L871 208L858 188L847 176L841 174L830.5 184L818 201L808.5 218L804 228.5L807 230.5H815L821.5 229.5L821 257Z" fill="#005B51"/>
<path d="M1244.5 404L1221 403L1218.5 394V370V366.5L1204 367.5L1201 366.5L1203 359.5L1217.5 335.5L1232 316L1240.5 311.5L1253.5 322.5L1267.5 344L1276.5 360.5L1278 366.5L1273.5 367.5H1261L1262 385.5L1261 402L1244.5 404Z" fill="#005B51"/>
<path fill-rule="evenodd" clip-rule="evenodd" d="M875.338 477.035C873.454 478.063 871.817 479.489 870.539 481.214C869.245 479.963 867.847 478.824 866.36 477.809C857.497 473.436 847.01 482.879 856.027 494.837C860.094 499.724 865.162 503.683 870.888 506.447C877.389 502.306 891.05 492.399 889.812 484.31C889.622 482.717 889.039 481.196 888.118 479.883C887.196 478.57 885.963 477.505 884.53 476.784C883.096 476.064 881.506 475.709 879.902 475.753C878.298 475.797 876.73 476.237 875.338 477.035ZM736.831 375.099C744.811 375.158 752.783 374.575 760.67 373.358C761.029 373.358 761.374 373.215 761.628 372.961C761.882 372.707 762.025 372.362 762.025 372.003C762.025 371.644 761.882 371.299 761.628 371.045C761.374 370.791 761.029 370.649 760.67 370.649C752.807 369.388 744.869 368.651 736.908 368.443C731.297 368.443 721.08 368.21 715.701 368.443C710.321 368.675 700.221 369.797 698.827 370.068C683.812 373.048 721.506 375.138 736.831 375.099ZM966.477 255.129C974.457 255.198 982.43 254.615 990.316 253.388C990.675 253.388 991.02 253.245 991.274 252.991C991.528 252.737 991.67 252.392 991.67 252.033C991.67 251.674 991.528 251.329 991.274 251.075C991.02 250.821 990.675 250.679 990.316 250.679C982.455 249.404 974.516 248.667 966.554 248.473C960.788 248.473 950.532 248.24 945.346 248.473C940.161 248.705 929.866 249.827 928.473 250.098C914.309 252.884 950.958 255.168 966.477 255.129ZM1140.59 361.361C1148.57 361.405 1156.54 360.809 1164.43 359.58C1164.78 359.58 1165.12 359.44 1165.37 359.189C1165.62 358.939 1165.76 358.599 1165.76 358.245C1165.76 357.891 1165.62 357.551 1165.37 357.301C1165.12 357.051 1164.78 356.91 1164.43 356.91C1156.57 355.642 1148.63 354.905 1140.67 354.704C1134.94 354.704 1124.64 354.472 1119.46 354.704C1114.27 354.936 1103.98 356.059 1102.58 356.33C1087.61 359.309 1125.22 361.399 1140.59 361.361ZM1314.39 269.448C1306.53 268.18 1298.59 267.443 1290.63 267.242C1284.9 267.242 1274.57 267.01 1269.42 267.242C1264.27 267.474 1253.94 268.597 1252.55 268.868C1238.31 271.693 1275.77 273.976 1290.55 273.937C1298.53 273.986 1306.5 273.391 1314.39 272.157C1314.75 272.157 1315.09 272.014 1315.35 271.76C1315.6 271.506 1315.74 271.162 1315.74 270.803C1315.74 270.443 1315.6 270.099 1315.35 269.845C1315.09 269.591 1314.75 269.448 1314.39 269.448ZM722.164 293.984C721.467 298.628 721.08 316.739 722.86 320.493C723.441 321.616 725.956 321.809 727.775 322.003C737.953 323.086 787.18 323.938 792.133 320.687C793.255 319.99 793.449 318.365 793.604 316.546C794.107 310.47 793.139 294.835 791.243 291.043C790.198 288.953 784.432 288.992 723.17 292.088C722.434 292.32 722.28 293.249 722.164 293.984ZM723.595 293.442C765.701 292.978 784.354 292.745 788.573 293.171C790.144 301.406 790.574 309.819 789.85 318.171C789.85 317.784 740.778 322.041 724.756 319.023C723.388 310.569 722.998 301.985 723.595 293.442ZM678.278 245.493C688.456 246.576 737.682 247.428 742.636 244.177C743.719 243.442 743.952 241.855 744.068 240.036C744.571 233.96 743.642 218.287 741.746 214.533C740.701 212.443 734.702 212.482 673.672 215.578C672.937 215.578 672.782 216.739 672.666 217.474C671.97 222.118 671.583 240.23 673.363 243.945C673.75 245.106 676.42 245.299 678.278 245.493ZM674.098 216.932C716.088 216.429 734.818 216.236 739.075 216.661C740.705 224.876 741.174 233.278 740.469 241.623C740.469 241.236 691.32 245.493 675.375 242.513C673.988 234.061 673.56 225.48 674.098 216.932ZM1063.15 240.887C1073.25 241.971 1122.55 242.861 1127.51 239.61C1128.59 238.875 1128.82 237.288 1128.98 235.431C1129.44 229.355 1128.51 213.72 1126.62 209.927C1125.57 207.838 1119.73 207.915 1058.54 211.011C1057.81 211.011 1057.65 212.133 1057.54 212.907C1056.84 217.59 1056.45 235.624 1058.23 239.378C1058.78 240.539 1061.37 240.694 1063.15 240.887ZM1058.97 212.327C1100.53 211.862 1119.73 211.63 1123.95 212.056C1125.58 220.283 1126.05 228.699 1125.34 237.056C1125.53 236.669 1076.19 240.926 1060.25 237.908C1058.86 229.456 1058.43 220.875 1058.97 212.327ZM849.37 320.996C848.674 325.679 848.287 343.752 850.067 347.506C850.609 348.628 853.202 348.822 854.982 349.015C864.812 350.06 882.072 350.138 891.747 349.983C895.617 349.983 916.36 349.673 919.34 347.699C920.424 347.003 920.617 345.416 920.772 343.559C921.275 337.483 920.346 321.848 918.45 318.055C917.986 317.088 916.902 316.972 915.818 316.894C905.176 316.043 861.058 318.597 850.338 319.1C849.641 319.139 849.487 320.261 849.37 320.996ZM850.764 320.455C855.911 320.455 910.865 319.681 915.78 320.184C917.41 328.411 917.879 336.826 917.173 345.184C917.173 344.797 868.024 349.054 852.079 346.035C850.679 337.585 850.238 329.004 850.764 320.455ZM1141.4 313.721C1151.5 314.804 1200.81 315.656 1205.76 312.405C1206.84 311.708 1207.04 310.083 1207.19 308.264C1207.69 302.188 1206.76 286.515 1204.87 282.761C1203.82 280.632 1197.98 280.71 1136.8 283.806C1136.06 283.806 1135.91 284.967 1135.79 285.702C1135.09 290.385 1134.71 308.458 1136.49 312.173C1137.03 313.334 1139.62 313.527 1141.4 313.721ZM1137.22 285.122C1142.33 285.122 1197.28 284.386 1202.2 284.889C1203.83 293.104 1204.3 301.506 1203.59 309.851C1203.79 309.464 1154.44 313.721 1138.5 310.741C1137.11 302.276 1136.68 293.682 1137.22 285.122ZM1245.97 229.316C1255.8 230.361 1272.86 230.438 1282.73 230.284C1286.6 230.284 1307.35 229.974 1310.33 228C1311.41 227.304 1311.64 225.717 1311.76 223.859C1312.26 217.784 1311.33 202.11 1309.44 198.356C1308.97 197.389 1307.89 197.273 1306.8 197.195C1296.16 196.344 1252.04 198.937 1241.36 199.401C1240.63 199.401 1240.47 200.562 1240.36 201.336C1239.66 205.98 1239.27 224.053 1241.05 227.807C1241.59 228.929 1244.19 229.123 1245.97 229.316ZM1241.79 200.756C1246.9 200.756 1301.85 199.982 1306.77 200.485C1308.4 208.712 1308.87 217.127 1308.16 225.485C1308.16 225.098 1259.01 229.355 1243.07 226.336C1241.68 217.885 1241.25 209.303 1241.79 200.756ZM804.13 230.4C806.994 232.141 817.482 230.632 820.81 230.129C820.345 234.889 819.533 261.089 821.971 265.617C822.232 265.965 822.563 266.255 822.943 266.468C823.323 266.682 823.743 266.813 824.177 266.855C831.298 268.519 860.361 267.358 863.728 266.352C864.85 266.042 865.276 265.036 865.547 263.875C866.824 258.186 865.547 238.333 865.237 232.49C868.643 232.722 878.782 232.954 881.491 230.903C881.8 230.683 882.052 230.393 882.227 230.056C882.402 229.72 882.495 229.347 882.498 228.968C882.42 218.79 851.77 171.847 842.598 172.35C831.955 172.969 803.55 218.79 803.124 228.542C803.103 228.915 803.186 229.286 803.364 229.614C803.541 229.942 803.807 230.214 804.13 230.4ZM842.83 175.678C848.674 175.407 877.892 217.513 879.208 228.387C874.111 229.384 868.894 229.618 863.728 229.084C863.488 229.059 863.245 229.087 863.018 229.168C862.79 229.248 862.583 229.378 862.412 229.548C861.251 230.709 862.412 231.174 863.032 251.259C863.195 255.325 863.092 259.397 862.722 263.45C857.304 264.456 830.059 265.965 824.022 264.34C822.01 259.967 821.932 233.031 822.358 229.51C822.417 229.408 822.45 229.293 822.452 229.176C822.455 229.059 822.429 228.942 822.374 228.838C822.32 228.734 822.241 228.645 822.143 228.58C822.046 228.514 821.933 228.475 821.816 228.465C818.173 228.982 814.503 229.292 810.825 229.394C808.88 229.543 806.925 229.266 805.098 228.581C805.678 219.254 835.013 175.949 842.753 175.562L842.83 175.678ZM1239.93 309.967C1229.33 310.586 1200.88 356.407 1200.5 366.159C1200.47 366.507 1200.55 366.853 1200.72 367.156C1200.9 367.458 1201.15 367.704 1201.46 367.862C1204.33 369.642 1214.81 368.133 1218.18 367.63C1217.72 371.5 1216.83 398.59 1219.3 403.118C1219.57 403.466 1219.91 403.755 1220.3 403.968C1220.68 404.181 1221.11 404.313 1221.55 404.356C1228.67 406.02 1257.69 404.859 1261.1 403.853C1262.18 403.544 1262.61 402.537 1262.88 401.376C1264.2 395.687 1262.88 375.873 1262.57 369.991C1265.94 369.991 1276.12 370.455 1278.82 368.365C1279.14 368.161 1279.4 367.88 1279.57 367.548C1279.75 367.216 1279.84 366.845 1279.83 366.469C1279.75 356.291 1249.14 309.464 1239.93 309.967ZM1260.94 366.585C1260.71 366.563 1260.48 366.593 1260.25 366.674C1260.03 366.754 1259.83 366.882 1259.67 367.049C1258.47 368.21 1259.67 368.636 1260.25 388.76C1260.43 392.826 1260.33 396.899 1259.94 400.951C1254.25 401.996 1227.16 403.427 1221.24 401.841C1219.23 397.468 1219.15 370.571 1219.61 367.011C1219.67 366.909 1219.71 366.795 1219.71 366.677C1219.71 366.56 1219.68 366.443 1219.63 366.339C1219.58 366.235 1219.5 366.146 1219.4 366.081C1219.3 366.015 1219.19 365.976 1219.07 365.966C1215.43 366.484 1211.76 366.781 1208.08 366.856C1206.14 367.043 1204.18 366.778 1202.35 366.082C1203.05 356.678 1232.38 313.411 1240.12 313.024C1245.93 312.792 1275.15 354.82 1276.46 365.734C1271.36 366.788 1266.13 367.075 1260.94 366.585ZM975.61 362.831C973.559 363.063 969.186 363.721 968.683 361.748C967.87 358.652 969.766 344.333 968.953 343.597C968.141 342.862 968.102 343.249 967.909 343.597C965.792 349.004 964.792 354.783 964.967 360.587C965.354 365.656 968.837 366.856 972.901 365.463C973.941 365.12 974.962 364.719 975.958 364.263C976.148 364.217 976.312 364.097 976.413 363.93C976.515 363.763 976.546 363.563 976.5 363.373C976.454 363.183 976.334 363.019 976.167 362.918C976 362.816 975.8 362.785 975.61 362.831ZM961.794 347.08C961.717 346.539 961.431 346.049 960.996 345.716C960.562 345.383 960.015 345.234 959.472 345.3C958.934 345.368 958.444 345.646 958.11 346.074C957.777 346.502 957.626 347.045 957.692 347.583C958.001 349.789 957.692 352.653 960.246 352.653C960.555 352.657 960.861 352.589 961.14 352.456C961.419 352.322 961.663 352.126 961.854 351.883C962.045 351.64 962.178 351.356 962.241 351.053C962.304 350.75 962.297 350.437 962.22 350.138C961.952 349.14 961.809 348.113 961.794 347.08ZM981.454 347.08C981.551 347.541 981.805 347.954 982.171 348.25C982.538 348.546 982.995 348.707 983.466 348.706C983.77 348.713 984.072 348.65 984.349 348.524C984.625 348.397 984.87 348.209 985.064 347.975C985.257 347.74 985.395 347.465 985.467 347.169C985.539 346.873 985.543 346.565 985.478 346.268C985.478 345.3 985.478 344.333 985.014 342.862C984.81 342.465 984.483 342.145 984.081 341.951C983.679 341.756 983.224 341.699 982.786 341.786C982.349 341.874 981.951 342.102 981.655 342.436C981.359 342.769 981.179 343.191 981.144 343.636C981.26 344.99 981.183 345.726 981.454 347.08ZM988.458 364.457C985.091 369.255 981.608 373.435 976.113 373.899C975.951 373.937 975.807 374.028 975.704 374.158C975.601 374.288 975.545 374.449 975.545 374.615C975.545 374.781 975.601 374.942 975.704 375.072C975.807 375.202 975.951 375.293 976.113 375.331C977.714 375.989 979.472 376.163 981.17 375.833C982.869 375.503 984.434 374.683 985.672 373.474C988.167 371.327 989.711 368.28 989.968 364.998C990.003 364.899 990.019 364.794 990.014 364.689C990.009 364.584 989.983 364.481 989.938 364.385C989.893 364.29 989.83 364.205 989.752 364.134C989.674 364.063 989.583 364.008 989.484 363.973C989.385 363.937 989.28 363.921 989.174 363.927C989.069 363.932 988.966 363.957 988.871 364.002C988.776 364.047 988.69 364.11 988.619 364.188C988.549 364.266 988.494 364.357 988.458 364.457Z" fill="black"/>
<path fill-rule="evenodd" clip-rule="evenodd" d="M1243.49 562.291C1232.96 554.899 1225.81 555.054 1223.25 553.351C1226.48 540.526 1228.22 527.371 1228.44 514.148C1227.93 490.541 1210.83 460.471 1190.12 450.138C1178.32 444.294 1157.23 438.257 1144.15 439.728C1136.88 440.569 1129.82 442.691 1123.29 445.997C1119.16 438.626 1114.16 431.779 1108.39 425.602C1098.37 415.889 1086.87 412.483 1072.98 410.122C1063.32 404.677 1052.88 400.76 1042.02 398.512C1038.73 396.035 1024.72 389.302 1022.67 390.076C1021.39 384.619 1018.8 375.408 1018.49 373.589C1021.81 368.357 1023.8 362.392 1024.29 356.213C1026.37 355.81 1028.34 354.965 1030.06 353.737C1031.78 352.508 1033.22 350.925 1034.28 349.092C1037.5 343.186 1038.5 336.323 1037.1 329.742C1036.37 324.518 1034.59 315.307 1031.14 311.321C1031.07 310.358 1030.88 309.409 1030.56 308.496C1031.64 307.67 1032.43 306.536 1032.85 305.245C1034.09 304.703 1035.83 305.903 1036.95 306.484C1040.13 309.183 1043.01 312.219 1045.54 315.539C1045.64 315.878 1045.88 316.162 1046.19 316.329C1046.5 316.496 1046.87 316.532 1047.2 316.43C1047.54 316.327 1047.83 316.094 1047.99 315.782C1048.16 315.47 1048.2 315.104 1048.1 314.765C1048.52 303.62 1038.61 297.66 1032.62 301.724C1032.43 300.595 1032.07 299.5 1031.57 298.473C1040.24 293.751 1045 298.666 1049.68 307.799C1051.52 310.986 1052.83 314.449 1053.55 318.055C1053.52 318.404 1053.63 318.751 1053.86 319.019C1054.08 319.288 1054.4 319.456 1054.75 319.487C1055.1 319.518 1055.45 319.409 1055.72 319.184C1055.98 318.959 1056.15 318.636 1056.18 318.287C1056.97 314.407 1056.83 310.395 1055.77 306.58C1054.7 302.766 1052.75 299.258 1050.07 296.344C1043.99 289.494 1036.76 289.61 1032.69 293.016C1031.67 293.92 1030.73 294.903 1029.87 295.957C1029.17 294.99 1028.36 293.984 1027.51 292.977C1029.9 291.006 1032.64 289.509 1035.59 288.566C1036.96 288.199 1038.38 288.11 1039.77 288.302C1041.17 288.495 1042.51 288.966 1043.72 289.688C1047.02 291.45 1050.16 293.482 1053.13 295.764C1053.36 296.017 1053.67 296.174 1054.01 296.203C1054.35 296.233 1054.69 296.132 1054.96 295.921C1055.23 295.71 1055.41 295.405 1055.47 295.067C1055.52 294.73 1055.45 294.384 1055.25 294.1C1053.58 289.96 1050.7 286.424 1046.97 283.96C1045.18 282.749 1043.13 281.957 1040.99 281.642C1038.84 281.327 1036.66 281.497 1034.59 282.14C1032.52 282.782 1030.62 283.881 1029.04 285.355C1027.45 286.829 1026.21 288.64 1025.42 290.655C1024.41 289.61 1023.37 288.604 1022.28 287.675C1026.15 282.528 1031.69 278.078 1038.03 279.2C1046.73 280.747 1054.54 285.48 1059.94 292.474C1060.11 292.782 1060.4 293.008 1060.74 293.102C1061.08 293.197 1061.45 293.152 1061.76 292.977C1062.06 292.803 1062.29 292.513 1062.38 292.172C1062.48 291.831 1062.43 291.466 1062.26 291.158C1061.03 287.783 1059.25 284.632 1057 281.832C1050.15 273.511 1031.11 266.352 1022.36 280.787C1021.39 282.378 1020.59 284.064 1019.96 285.818C1018.04 284.347 1016 283.052 1013.85 281.948C1015.62 277.96 1018.59 274.618 1022.33 272.38C1026.08 270.143 1030.43 269.118 1034.78 269.448C1044.38 270.368 1053.35 274.627 1060.13 281.483C1060.34 281.766 1060.66 281.953 1061 282.004C1061.35 282.054 1061.71 281.965 1061.99 281.754C1062.27 281.544 1062.46 281.23 1062.51 280.882C1062.56 280.533 1062.47 280.179 1062.26 279.897C1048.13 255.167 1015.28 258.225 1010.98 280.632C1008.88 279.749 1006.69 279.113 1004.44 278.736C1005.18 265.578 1019.42 260.276 1033.66 261.166C1036.63 261.184 1039.58 261.721 1042.37 262.753C1042.51 262.847 1042.68 262.911 1042.85 262.941C1043.02 262.972 1043.2 262.968 1043.37 262.93C1043.54 262.892 1043.7 262.821 1043.85 262.721C1043.99 262.621 1044.11 262.494 1044.21 262.346C1044.3 262.199 1044.36 262.034 1044.39 261.862C1044.42 261.69 1044.42 261.514 1044.38 261.343C1044.35 261.172 1044.27 261.011 1044.17 260.867C1044.07 260.724 1043.95 260.602 1043.8 260.508C1041.08 258.353 1037.94 256.785 1034.59 255.903C1017.99 251.065 997.088 262.211 1001.38 278.465C998.748 278.215 996.111 278.939 993.972 280.5C991.832 282.062 990.339 284.353 989.774 286.94C987.755 286.054 985.513 285.806 983.349 286.228C981.184 286.649 979.2 287.722 977.661 289.301C974.517 289.095 971.383 289.837 968.665 291.43C965.947 293.024 963.769 295.396 962.413 298.241C952.429 305.981 950.803 313.721 949.565 326.337C949.385 332.238 949.839 338.141 950.919 343.945C953.203 357.645 955.989 368.404 965.703 378.272C968.403 381.36 971.754 383.812 975.515 385.451C979.275 387.09 983.352 387.877 987.452 387.754C988.265 395.494 988.304 394.604 987.994 394.642C972.514 396.926 970.889 396.19 971.585 399.789L968.373 400.641C954.054 392.901 938.148 392.011 920.772 391.198C898.442 390.192 872.32 407.839 856.453 423.242C809.123 406.407 730.91 442.591 729.981 497.932C726.692 498.784 661.211 497.932 641.281 570.766C631.18 609.659 638.92 627.461 652.426 647.469C649.524 651.068 629.477 666.819 620.46 686.479C601.652 727.927 616.59 802.579 651.846 830.598C679.71 852.734 716.32 851.109 749.06 849.058C764.176 870.157 785.194 886.315 809.471 895.498C846.739 910.242 896.12 911.519 927.97 899.909C941.254 895.375 953.372 887.961 963.458 878.199C981.817 886.993 1001.83 891.802 1022.18 892.309C1042.53 892.816 1062.76 889.01 1081.53 881.14C1105.95 870.807 1132.85 842.44 1141.94 817.44C1147.28 802.656 1146.55 789.769 1146.55 773.863C1217.56 772.935 1255.41 720.032 1227.55 680.674C1227.93 680.674 1239.16 682.222 1249.61 666.394C1262.4 647.254 1268.37 624.365 1266.56 601.416C1265.9 593.581 1263.48 585.996 1259.49 579.222C1255.49 572.449 1250.03 566.662 1243.49 562.291ZM1030.64 325.718C1031.06 324.289 1031.35 322.825 1031.49 321.344C1034.47 331.91 1035.9 346.964 1026.15 352.034C1030.76 346.577 1030.02 337.521 1024.8 334.502C1027.84 332.439 1029.98 329.299 1030.8 325.718H1030.64ZM994.573 283.651C995.782 282.719 997.19 282.08 998.688 281.784C1000.19 281.489 1001.73 281.545 1003.2 281.948C1013.27 283.496 1022.17 291.12 1028.55 299.092C1029.53 300.099 1030.17 301.389 1030.37 302.78C1030.57 304.17 1030.33 305.588 1029.67 306.832C1029.05 305.384 1028.14 304.077 1026.99 302.993C1025.85 301.908 1024.5 301.068 1023.02 300.524C1022.14 298.505 1020.75 296.751 1018.98 295.434C1017.22 294.118 1015.14 293.284 1012.96 293.016C1011.91 291.44 1010.41 290.224 1008.65 289.532C1006.89 288.839 1004.96 288.705 1003.13 289.146C1001.68 287.719 999.848 286.757 997.854 286.384C995.86 286.012 993.801 286.246 991.941 287.056C992.525 285.722 993.429 284.552 994.573 283.651ZM984.163 386.399C972.011 384.774 961.484 372.08 957.769 360.393C954.582 349.471 953.017 338.14 953.125 326.762C953.342 321.594 954.401 316.496 956.26 311.669C954.279 318.016 954.553 324.852 957.034 331.019C957.065 331.379 957.237 331.711 957.513 331.943C957.789 332.175 958.145 332.289 958.505 332.258C958.864 332.227 959.196 332.055 959.428 331.779C959.661 331.503 959.774 331.146 959.743 330.787C959.743 329.588 960.827 324.982 961.097 323.047C962.684 311.166 965.587 303.272 965.664 300.253C966.534 298.361 967.858 296.713 969.519 295.457C971.18 294.201 973.127 293.376 975.184 293.055C965.471 301.53 962.452 318.945 966.786 327.885C966.879 328.234 967.106 328.532 967.418 328.713C967.73 328.895 968.101 328.945 968.45 328.852C968.799 328.76 969.097 328.533 969.279 328.221C969.46 327.908 969.51 327.537 969.418 327.188C969.961 321.023 971.181 314.936 973.056 309.038C975.03 302.807 977.76 296.842 981.183 291.275C982.246 290.393 983.538 289.831 984.907 289.653C986.277 289.475 987.669 289.688 988.923 290.268C979.364 297.041 972.514 315.23 976.19 326.259C976.194 326.45 976.238 326.637 976.32 326.809C976.401 326.981 976.517 327.134 976.662 327.258C976.806 327.382 976.975 327.475 977.157 327.529C977.339 327.584 977.531 327.599 977.72 327.574C977.909 327.55 978.09 327.486 978.252 327.386C978.415 327.287 978.554 327.154 978.662 326.997C978.769 326.84 978.843 326.663 978.877 326.475C978.911 326.288 978.906 326.096 978.861 325.911C980.169 319.723 982.021 313.662 984.395 307.799C989.968 293.906 993.373 290.849 993.567 290.462C994.668 290.029 995.866 289.905 997.032 290.103C998.198 290.301 999.288 290.813 1000.18 291.584C997.763 293.173 995.63 295.162 993.876 297.467C989.98 303.309 987.344 309.899 986.136 316.817C985.57 320.302 985.57 323.857 986.136 327.343C986.136 327.702 986.279 328.047 986.533 328.301C986.787 328.555 987.132 328.697 987.491 328.697C987.85 328.697 988.195 328.555 988.449 328.301C988.703 328.047 988.845 327.702 988.845 327.343C989.929 321.809 999.14 297.854 1003.4 293.132C1004.69 292.706 1006.09 292.744 1007.37 293.238C1008.64 293.732 1009.7 294.652 1010.36 295.841C1009.28 298.782 997.088 328.272 997.011 328.349C996.749 328.601 996.598 328.946 996.591 329.309C996.584 329.671 996.721 330.022 996.972 330.284C997.224 330.546 997.569 330.697 997.932 330.704C998.295 330.711 998.646 330.574 998.907 330.323C1001.58 328.324 1003.88 325.859 1005.68 323.047C1007.32 320.326 1008.74 317.479 1009.94 314.533C1012.51 309.039 1013.64 302.978 1013.23 296.925C1014.63 297.212 1015.94 297.838 1017.05 298.749C1018.15 299.659 1019.02 300.827 1019.57 302.149C1017 311.327 1013.57 320.242 1009.32 328.775C1008.46 330.874 1007.28 332.832 1005.83 334.58C1005.59 334.795 1005.43 335.092 1005.38 335.416C1005.34 335.74 1005.41 336.069 1005.59 336.343C1005.77 336.616 1006.04 336.816 1006.36 336.904C1006.67 336.993 1007.01 336.964 1007.31 336.824C1013.34 334.386 1017.41 327.846 1019.88 321.809C1022.4 316.358 1023.28 310.298 1022.44 304.355C1031.84 308.225 1025.3 322.815 1020.73 334.077C1019.79 334.274 1018.89 334.67 1018.1 335.238C1014.23 337.908 1014.58 340.153 1016.21 339.108C1026.66 332.142 1028.16 347.622 1022.17 353.465C1019.5 353.93 1022.17 356.948 1018.61 366.043C1013.85 378.35 1013.61 366.662 1019.84 391.391C1000.15 399.131 999.643 400.408 996.082 401.453C994.474 399.049 992.502 396.908 990.239 395.107C990.006 394.874 990.239 395.997 989.116 387.367C989.078 385.857 987.22 386.825 984.163 386.399ZM972.553 402.924C973.552 407.926 975.016 412.823 976.926 417.553C977.269 417.801 977.682 417.935 978.106 417.935C978.53 417.935 978.943 417.801 979.286 417.553C984.252 414.446 988.974 410.966 993.412 407.142C980.873 433.652 974.449 452.731 971.198 480.982C971.198 481.156 971.267 481.324 971.391 481.447C971.514 481.57 971.682 481.64 971.856 481.64C972.031 481.64 972.198 481.57 972.321 481.447C972.445 481.324 972.514 481.156 972.514 480.982C976.384 458.342 985.556 432.53 993.722 410.471C993.496 414.337 993.496 418.214 993.722 422.081C993.746 422.342 993.833 422.593 993.975 422.813C994.117 423.033 994.311 423.216 994.539 423.345C994.767 423.474 995.023 423.547 995.285 423.555C995.547 423.564 995.807 423.51 996.044 423.396C1002.97 420.61 1034.4 405.13 1041.01 401.221C1105.49 415.153 1139.19 492.05 1128.86 545.804C1092.64 536.439 1055.33 550.332 1028.24 575.99C1008.58 572.362 989.668 565.427 972.32 555.479V536.129C1040.51 532.492 1040.43 532.259 1040.43 530.053C1040.44 512.879 1041.57 495.723 1043.84 478.699C1048.52 446.191 1054.87 446.539 1052.97 445.223C1052.91 445.157 1052.84 445.104 1052.76 445.068C1052.68 445.032 1052.59 445.013 1052.51 445.013C1052.42 445.013 1052.33 445.032 1052.25 445.068C1052.17 445.104 1052.1 445.157 1052.04 445.223C1040.9 460.703 1038.19 509.968 1037.76 528.892C1030.02 530.247 978.009 532.453 971.43 532.762C968.837 532.762 969.108 534.311 968.992 539.341C959.666 539.032 956.492 538.877 950.765 541.122C950.494 513.025 949.371 461.555 946.43 455.324C946.035 454.715 945.428 454.274 944.727 454.085C940.857 452.731 923.171 449.248 901.538 445.417C920.367 424.32 945.203 409.491 972.707 402.924H972.553ZM956.84 541.973C960.833 541.302 964.868 540.914 968.915 540.812V555.595C949.255 556.524 944.611 556.679 943.876 555.595C943.837 555.479 942.212 546.191 956.995 541.973H956.84ZM943.528 457.22C946.004 464.96 947.088 516.044 947.398 542.592C942.676 545.34 940.548 548.939 940.973 556.137C923.829 553.312 820.694 533.614 814.773 529.899C814.648 529.819 814.545 529.71 814.471 529.583C814.397 529.455 814.354 529.311 814.347 529.163C811.29 511.284 808.503 444.952 809.084 434.426C821.352 434.271 933.04 453.544 943.682 457.22H943.528ZM1246.97 664.884C1243.1 670.496 1235.36 677.771 1228.82 677.771H1224.45C1224.16 677.774 1223.87 677.861 1223.62 678.022C1223.37 678.183 1223.18 678.411 1223.06 678.679C1222.94 678.947 1222.89 679.244 1222.93 679.536C1222.97 679.828 1223.1 680.102 1223.29 680.326C1229.66 687.987 1233.3 697.555 1233.62 707.516C1233.95 717.477 1230.94 727.261 1225.07 735.318C1208.43 760.202 1174.76 770.806 1144.92 770.768C1144.48 770.768 1144.06 770.943 1143.75 771.255C1143.43 771.567 1143.26 771.99 1143.26 772.432C1143.61 782.244 1143.33 792.068 1142.41 801.844C1138.03 834.274 1105.53 867.634 1080.25 878.199C1061.81 886.143 1041.85 889.935 1021.78 889.306C1001.88 888.41 982.359 883.57 964.348 875.064C963.952 874.881 963.514 874.806 963.079 874.847C962.644 874.887 962.227 875.042 961.871 875.296C951.992 884.978 940.1 892.364 927.041 896.929C896.081 907.882 847.358 906.798 810.941 892.402C786.873 883.282 766.061 867.211 751.15 846.233C750.618 845.833 749.953 845.653 749.292 845.729C716.204 847.161 681.413 849.599 653.974 828.043C619.57 800.837 605.251 727.656 623.44 687.756C632.883 666.974 653.626 652.307 655.638 648.321C658.038 643.406 628.897 629.822 644.686 571.695C652.426 543.018 674.988 514.999 703.82 505.363C709.47 503.467 729.555 501.493 732.226 500.255C732.495 500.143 732.726 499.955 732.89 499.715C733.055 499.474 733.147 499.191 733.154 498.9C733.154 444.256 811.445 408.961 856.994 425.37L858.039 425.138C868.499 414.953 880.437 406.407 893.45 399.789C901.999 395.305 911.505 392.955 921.159 392.939C937.684 393.597 952.932 394.526 966.67 401.221C940.262 408.797 916.667 423.98 898.829 444.875C861.329 438.257 814.037 430.827 808.232 431.639C807.842 431.64 807.463 431.775 807.16 432.022C806.857 432.268 806.648 432.611 806.568 432.994C805.678 438.451 809.393 508.923 813.225 529.744C813.534 531.253 826.151 534.814 843.643 538.955C830.417 540.329 817.769 545.087 806.917 552.77C789.85 565.696 776.653 586.981 766.63 609.93C747.28 654.319 739.54 704.861 739.54 711.556C739.54 712.911 741.011 713.375 742.675 713.995C738.168 721.157 734.284 728.692 731.065 736.518C730.058 741.007 733.851 742.555 737.45 740.968C741.92 737.989 746.013 734.481 749.641 730.519C750.028 730.132 760.399 718.909 760.709 718.484C762.141 718.484 762.953 718.793 763.65 718.097C765.817 716.046 833.929 634.931 835.361 633.344C838.675 624.261 842.552 615.395 846.971 606.796C847.004 606.714 847.053 606.64 847.115 606.578C847.176 606.515 847.25 606.466 847.33 606.431C847.411 606.397 847.498 606.379 847.586 606.379C847.674 606.378 847.761 606.395 847.842 606.428C847.923 606.461 847.997 606.51 848.06 606.571C848.122 606.633 848.172 606.706 848.206 606.787C848.24 606.868 848.258 606.955 848.259 607.043C848.259 607.13 848.243 607.217 848.21 607.299C845.713 616.414 842.37 625.276 838.225 633.77C846.545 634.969 862.954 637.407 870.772 638.955C891.476 615.929 912.916 605.054 940.432 590.309C940.587 590.222 940.77 590.197 940.942 590.241C941.115 590.284 941.265 590.392 941.36 590.542C942.018 591.703 941.36 590.89 911.523 609.892C887.026 625.372 754.943 738.376 751.421 754.088C751.248 755.022 751.248 755.979 751.421 756.913C746.893 755.094 742.249 751.65 737.411 749.405C734.18 747.956 730.808 746.841 727.349 746.077C725.182 745.845 723.479 746.89 723.983 749.018C724.602 752.888 730.175 758.5 732.806 761.209C738.796 767.679 745.378 773.574 752.466 778.817C753.278 779.282 754.285 779.707 754.981 779.049L763.998 771.038C767.327 773.709 767.327 774.251 769.029 774.018C772.474 773.593 785.864 768.136 804.556 759.932C802.155 766.467 800.595 773.281 799.912 780.21C799.949 780.362 800.035 780.498 800.158 780.594C800.281 780.691 800.433 780.744 800.589 780.744C800.746 780.744 800.897 780.691 801.02 780.594C801.143 780.498 801.23 780.362 801.266 780.21C804.285 755.055 816.321 739.846 830.485 730.674C855.601 714.382 887.451 717.091 887.451 717.091C887.646 717.112 887.842 717.093 888.029 717.036C888.216 716.978 888.389 716.883 888.537 716.756C888.686 716.629 888.807 716.473 888.893 716.298C888.979 716.123 889.029 715.931 889.038 715.736C892.173 674.211 945.734 644.102 989.039 653.816C989.538 653.878 990.042 653.754 990.456 653.469C990.869 653.184 991.164 652.756 991.283 652.268C995.091 633.654 1002.46 615.953 1012.99 600.139C1042.79 556.756 1099.18 530.208 1149.64 556.253C1153.86 558.421 1171.78 570.495 1171.82 573.901C1171.82 574.075 1171.89 574.242 1172.01 574.366C1172.13 574.489 1172.3 574.558 1172.48 574.558C1172.65 574.558 1172.82 574.489 1172.94 574.366C1173.07 574.242 1173.13 574.075 1173.13 573.901C1173.13 569.45 1154.48 556.795 1150.5 554.551C1144.68 551.431 1138.56 548.916 1132.23 547.043C1141.17 498.9 1112.88 435.703 1077.2 412.638C1088.81 414.998 1098.48 418.211 1107.38 426.918C1113.18 433.236 1118.22 440.211 1122.4 447.7C1124.53 450.912 1143.76 429.163 1189.39 452.112C1209.55 462.212 1225.84 491.702 1226.27 514.032C1225.92 527.272 1224.1 540.433 1220.85 553.273C1220.8 553.511 1220.8 553.757 1220.86 553.992C1220.92 554.228 1221.04 554.445 1221.2 554.628C1224.3 557.685 1230.95 556.292 1242.21 564.303C1248.44 568.484 1253.63 574.019 1257.41 580.493C1261.19 586.967 1263.46 594.213 1264.04 601.687C1265.67 624.056 1259.71 646.321 1247.13 664.884H1246.97ZM736.134 731.371C739.501 724.057 741.514 718.6 743.526 714.459C748.279 716.09 753.142 717.383 758.077 718.329C754.207 721.425 739.888 735.473 736.367 737.679C731.8 740.311 734.006 736.402 736.405 731.371H736.134ZM731.955 750.721C737.992 752.23 746.699 757.61 751.305 758.461C753.978 763.148 757.733 767.129 762.257 770.071L753.395 776.611C750.144 774.328 729.207 754.359 726.498 749.134C728.444 749.468 730.36 749.96 732.226 750.605L731.955 750.721Z" fill="black"/>
</g>
<defs>
<filter id="filter0_d_24_420" x="0" y="0" width="1928" height="1088" filterUnits="userSpaceOnUse" color-interpolation-filters="sRGB">
<feFlood flood-opacity="0" result="BackgroundImageFix"/>
<feColorMatrix in="SourceAlpha" type="matrix" values="0 0 0 0 0 0 0 0 0 0 0 0 0 0 0 0 0 0 127 0" result="hardAlpha"/>
<feOffset dy="4"/>
<feGaussianBlur stdDeviation="2"/>
<feComposite in2="hardAlpha" operator="out"/>
<feColorMatrix type="matrix" values="0 0 0 0 0 0 0 0 0 0 0 0 0 0 0 0 0 0 0.25 0"/>
<feBlend mode="normal" in2="BackgroundImageFix" result="effect1_dropShadow_24_420"/>
<feBlend mode="normal" in="SourceGraphic" in2="effect1_dropShadow_24_420" result="shape"/>
</filter>
</defs>
</svg>
